<svg width="510" height="800" viewBox="0 0 510 800" fill="none" xmlns="http://www.w3.org/2000/svg">
    <path d="M421.128 344.838C426.933 354.473 431.826 364.281 436.25 374.545L437.811 378.166L436.278 379.082C438.701 384.176 440.708 389.259 442.39 394.739L443.425 398.111L441.977 398.977C444.296 405.567 444.847 411.572 444.856 418.33L444.883 421.55L444.884 421.566L444.883 421.583C444.894 433.761 443.582 445.315 440.739 457.192L440.738 457.191L440.249 459.262L440.238 459.308L440.226 459.354C439.389 462.583 438.439 465.488 436.007 468.666C435.662 469.123 435.539 469.356 435.5 469.441L435.499 469.443C435.497 469.497 435.495 469.649 435.53 470.006C435.551 470.22 435.58 470.463 435.619 470.782L435.748 471.861L435.856 472.821L435.561 473.74C433.109 481.38 428.753 488.593 425.375 494.874L424.134 497.202L424.122 497.223L424.111 497.245C423.72 497.961 423.328 498.677 422.924 499.414L421.86 501.372L421.753 501.571L421.624 501.758C421.274 502.273 420.846 502.928 420.231 503.584L420.55 504.117L419.093 506.449C414.827 513.279 410.456 520.239 405.051 526.733C402.454 530.071 399.91 533.454 397.391 536.871L394.871 540.312L394.861 540.326L394.85 540.341C390.124 546.723 385.127 553.23 378.577 558.635L379.376 559.971L376.817 562.452C375.945 563.297 375.073 564.142 374.175 565.013C367.965 571.089 362.007 577.233 356.338 583.703L355.208 585.002L355.203 585.008L355.203 585.008C349.088 592.058 342.69 598.722 336.138 605.249L333.503 607.876L333.488 607.892C329.472 611.859 325.314 615.867 320.586 619.474L314.877 623.832L313.447 616.794C312.379 611.539 312.459 606.614 312.62 601.842L312.62 601.841C312.635 601.101 312.65 600.361 312.665 599.599L312.665 599.572L312.666 599.547C312.731 597.493 312.895 595.471 313.066 593.546L313.269 591.261L314.088 590.771C313.216 585.839 313.13 581.076 313.077 576.504L313.047 573.918L314.092 573.293C314.058 573.162 314.024 573.031 313.99 572.899L313.969 572.819L313.951 572.739C312.933 568.122 312.482 563.592 312.16 559.155L312.029 557.26C311.013 542.021 309.312 527.218 305.976 512.492L305.973 512.484C304.888 507.652 304.036 502.844 303.304 498.009L303.304 498.009C302.307 491.488 300.282 485.255 298.176 478.463L297.127 475.084L298.329 474.365C295.517 468.111 293.704 461.577 291.895 455.511L291.896 455.51C288.738 445.097 285.255 435.009 281.012 425.098L281.009 425.093L281.01 425.092C279.878 422.44 278.803 419.772 277.747 417.156L277.746 417.156C277.347 416.189 276.949 415.221 276.539 414.224L276.525 414.189C275.593 411.872 274.702 409.547 273.837 407.223L273.837 407.224C249.819 343.349 204.512 282.125 160.84 229.389L160.821 229.365L160.801 229.342C159.467 227.684 158.134 226.025 156.803 224.363L156.803 224.361C153.978 220.864 151.108 217.405 148.197 213.966L148.197 213.965C141.292 205.801 134.455 197.54 128.052 188.796C125.28 185.045 122.333 181.545 119.131 178.055L119.122 178.044L119.113 178.035C113.572 171.921 108.886 165.381 104.322 158.888L104.322 158.889C101.137 154.363 97.9008 150.031 94.4179 145.811L94.3837 145.768L94.3502 145.726C83.227 131.566 70.8504 115 72.9283 94.0496L72.9416 93.9119L72.9638 93.7758C74.601 83.6322 78.1615 75.5477 86.5687 68.5842L86.7216 68.4575L86.8856 68.3436C98.0635 60.6431 109.019 58.4784 122.28 60.8059L122.37 60.8215L122.46 60.8406C140.04 64.6692 152.401 73.2696 165.025 84.5323L168.687 87.7441L168.688 87.7452C171.089 89.8485 173.482 91.9585 175.87 94.0731C180.104 97.8151 184.406 101.489 188.743 105.185L188.763 105.201L188.783 105.219C191.082 107.224 193.282 109.277 195.442 111.406L196.764 112.684C199.871 115.642 203.131 118.451 206.511 121.329L206.515 121.332C214.832 128.428 219.2 132.151 221.849 134.76C223.255 136.144 224.222 137.264 225.037 138.369L225.952 137.821L228.429 140.185C229.282 140.999 230.136 141.814 231.015 142.652C234.052 145.55 237.093 148.444 240.136 151.337L240.137 151.339C241.285 152.431 242.434 153.525 243.58 154.62L247.867 158.698L247.872 158.703C248.669 159.463 249.467 160.221 250.287 161.002C251.942 162.462 253.582 163.604 255.623 164.881L256.052 165.149L256.41 165.506C257.822 166.911 259.255 168.341 260.672 169.799C262.073 171.185 263.544 172.475 265.147 173.815L265.164 173.83L265.182 173.845C270.799 178.638 276.07 183.805 281.224 188.747C284.767 192.13 288.215 195.385 291.845 198.438L291.851 198.442L291.856 198.447C296.216 202.139 299.819 206.359 303.232 210.293C305.02 212.169 306.534 213.563 308.499 215.061L308.511 215.07L308.522 215.079C312.917 218.475 316.392 222.48 319.652 226.218C320.82 227.553 321.991 228.886 323.166 230.213L323.179 230.226L323.19 230.239C323.659 230.777 324.128 231.315 324.608 231.867C325.839 233.076 327.122 233.908 329.093 235.15L329.462 235.382L329.779 235.68C330.864 236.701 331.911 237.758 332.918 238.844L334.534 240.573L334.544 240.584L334.554 240.596L336.21 242.391C340.862 247.394 345.575 252.274 350.436 257.039L350.442 257.046C354.639 261.175 358.629 265.431 362.489 269.858L363.667 271.203C366.419 274.323 369.193 277.332 372.104 280.247L372.107 280.251C379.428 287.601 385.895 295.431 392.19 303.398L392.189 303.399C393.179 304.64 394.17 305.88 395.16 307.12L395.163 307.125C397.835 310.477 400.511 313.847 403.162 317.244L403.163 317.243C403.617 317.821 404.07 318.399 404.537 318.994L404.547 319.006L404.556 319.018C407.845 323.265 410.754 327.613 413.487 332.169C413.895 332.843 414.303 333.518 414.722 334.213L414.725 334.218C415.582 335.643 416.437 337.07 417.29 338.497L417.291 338.497C418.553 340.605 419.832 342.706 421.118 344.821L421.128 344.838Z"
          fill="white"/>
    <path d="M266.471 469.526C269.237 474.927 270.706 479.666 271.712 485.626C272.862 491.356 274.479 496.961 276.075 502.581C277.488 507.685 278.461 512.628 279.012 517.894C279.342 520.985 279.875 524.028 280.42 527.087C280.727 528.822 280.727 528.822 281.041 530.593C281.236 531.672 281.43 532.751 281.631 533.863C281.794 534.769 281.957 535.674 282.125 536.608C282.467 538.495 282.813 540.382 283.161 542.269C282.594 542.607 282.028 542.946 281.444 543.295C281.71 543.973 281.977 544.652 282.251 545.351C285.012 553.782 284.787 563.394 285.106 572.198C285.146 573.288 285.186 574.377 285.227 575.5C285.946 597.223 284.978 618.933 280.797 640.305C280.315 642.795 280.044 645.025 279.912 647.579C279.399 654.858 276.335 658.218 271.079 662.867C269 664.639 266.902 666.384 264.789 668.115C261.61 670.749 258.572 673.529 255.526 676.315C254.916 676.867 254.306 677.419 253.677 677.988C248.188 682.961 242.776 688.015 237.363 693.071C223.146 706.33 208.825 719.362 193.888 731.806C184.561 739.581 175.19 747.411 166.886 756.297C160.167 763.424 152.289 768.696 143.959 773.739C142.794 774.452 142.794 774.452 141.606 775.178C128.02 783.217 128.02 783.217 122.252 781.765C120.41 782.022 118.569 782.279 116.729 782.545C108.257 783.535 99.0196 781.691 92.248 776.4C91.74 775.55 91.232 774.7 90.7086 773.825C90.1421 774.164 89.5757 774.502 88.992 774.851C83.1947 769.866 79.4259 762.055 78.0487 754.597C78.6152 754.258 79.1817 753.919 79.7654 753.57C79.4621 752.983 79.1589 752.395 78.8464 751.79C76.9194 744.398 79.1368 735.498 82.3779 728.707C84.3802 726.705 84.3802 726.705 86.1564 725.283C85.8178 724.717 85.4791 724.15 85.1302 723.567C88.6403 717.779 92.4135 712.461 96.7454 707.262C100.33 702.87 103.484 698.23 106.402 693.374C109.107 689.056 112.556 685.47 116 681.734C118.437 679.032 120.524 676.194 122.598 673.207C126.77 667.346 131.174 662.429 136.686 657.794C136.347 657.228 136.009 656.661 135.66 656.078C143.907 646.487 143.907 646.487 145.311 644.867C154.009 634.81 162.729 624.64 170.073 613.542C172.6 610.011 175.482 606.797 178.34 603.536C181.786 599.584 184.789 595.494 187.728 591.164C189.23 589.015 190.74 586.874 192.262 584.74C192.987 583.713 193.711 582.687 194.458 581.629C196.546 578.982 198.655 576.965 201.303 574.893C200.964 574.327 200.626 573.76 200.277 573.176C200.789 572.544 201.302 571.912 201.83 571.26C208.167 563.326 213.824 555.05 219.424 546.588C220.683 544.688 221.948 542.792 223.213 540.897C223.598 540.309 223.984 539.722 224.381 539.116C226.113 536.523 227.296 534.888 230.01 533.265C229.672 532.699 229.333 532.132 228.984 531.549C229.409 531.023 229.833 530.497 230.271 529.956C235.587 523.097 239.911 515.844 244.172 508.296C246.599 504.034 248.959 500.18 252.364 496.6C252.026 496.034 251.687 495.467 251.338 494.884C251.816 494.104 252.295 493.324 252.788 492.52C256.705 486.057 260.32 479.589 263.573 472.756C264.754 470.553 264.754 470.553 266.471 469.526Z"
          fill="white"/>
</svg>
