<svg width="164" height="149" viewBox="0 0 164 149" fill="none" xmlns="http://www.w3.org/2000/svg">
    <path d="M45.7627 0C46.7381 24.7906 66.6614 44.7124 91.4521 45.6875V45.7637C66.9796 46.7262 47.2512 66.1522 45.8105 90.499H45.6396C44.199 66.1524 24.4723 46.7265 0 45.7637V45.6875C24.7904 44.7121 44.7121 24.7904 45.6875 0H45.7627Z"
          fill="#0F53F3"/>
    <path d="M118.041 58.501C119.016 83.2918 138.938 103.213 163.729 104.188V104.264C139.256 105.226 119.529 124.653 118.088 149H117.917C116.476 124.654 96.7485 105.226 72.2764 104.264V104.188C97.0672 103.213 116.99 83.2917 117.965 58.501H118.041Z"
          fill="#0F53F3"/>
</svg>
